<?xml version="1.0" standalone="no"?>
<!DOCTYPE svg PUBLIC "-//W3C//DTD SVG 20010904//EN"
 "http://www.w3.org/TR/2001/REC-SVG-20010904/DTD/svg10.dtd">
<svg version="1.0" xmlns="http://www.w3.org/2000/svg"
 width="977.000000pt" height="977.000000pt" viewBox="0 0 977.000000 977.000000"
 preserveAspectRatio="xMidYMid meet">
<metadata>
Created by potrace 1.11, written by Peter Selinger 2001-2013
</metadata>
<g transform="translate(0.000000,977.000000) scale(0.100000,-0.100000)"
fill="#000000" stroke="none">
<path d="M4610 9763 c-25 -2 -54 -7 -65 -12 -11 -5 -67 -17 -125 -26 -58 -9
-109 -21 -115 -25 -5 -4 -34 -13 -64 -19 -30 -6 -59 -15 -65 -20 -6 -4 -24
-11 -41 -15 -16 -4 -53 -18 -82 -32 -29 -13 -65 -27 -80 -30 -16 -4 -30 -10
-33 -13 -3 -3 -34 -21 -70 -39 -137 -70 -248 -140 -340 -214 -33 -27 -62 -48
-65 -48 -3 0 -22 -18 -44 -40 -21 -22 -43 -40 -49 -40 -19 0 -182 -182 -183
-204 0 -18 -1 -19 -7 -3 -6 14 -22 -2 -82 -80 -41 -53 -84 -115 -94 -138 -10
-22 -29 -54 -42 -71 -13 -17 -24 -36 -24 -42 0 -7 -4 -12 -8 -12 -5 0 -15 -18
-22 -40 -7 -22 -16 -40 -20 -40 -3 0 -14 -22 -24 -50 -10 -27 -21 -50 -25 -50
-4 0 -14 -19 -21 -42 -8 -24 -17 -47 -20 -53 -4 -5 -13 -28 -20 -50 -7 -22
-16 -45 -21 -51 -5 -6 -6 -14 -2 -17 3 -4 1 -13 -5 -20 -6 -7 -17 -38 -23 -68
-6 -30 -15 -58 -19 -64 -4 -5 -13 -44 -20 -85 -6 -41 -14 -82 -17 -90 -3 -8
-5 -32 -4 -52 2 -22 -2 -38 -8 -38 -15 0 -15 -576 0 -585 6 -4 9 -19 8 -33 -1
-15 1 -36 6 -47 4 -11 12 -33 18 -50 6 -16 19 -35 28 -42 19 -14 30 -46 20
-59 -3 -5 -15 -14 -26 -20 -11 -6 -42 -24 -70 -39 -79 -45 -137 -77 -174 -97
-19 -10 -37 -21 -40 -26 -3 -4 -17 -13 -31 -20 -14 -6 -47 -25 -75 -42 -27
-16 -64 -36 -82 -45 -17 -8 -53 -29 -79 -47 -46 -31 -83 -52 -169 -98 -22 -11
-58 -32 -80 -45 -22 -14 -54 -32 -72 -41 -17 -9 -36 -28 -43 -42 -10 -23 -8
-28 12 -44 13 -10 41 -27 63 -38 52 -27 99 -54 105 -60 3 -3 14 -10 25 -16 76
-41 121 -67 130 -74 9 -7 54 -33 130 -74 11 -6 22 -13 25 -16 3 -3 16 -11 30
-18 52 -27 183 -104 190 -112 3 -3 21 -13 40 -23 19 -10 53 -29 75 -42 55 -34
122 -70 173 -95 23 -12 42 -25 42 -29 0 -4 18 -14 40 -21 22 -7 40 -17 40 -21
0 -5 15 -16 33 -24 17 -9 55 -29 82 -45 28 -16 62 -35 78 -42 15 -7 27 -16 27
-20 0 -4 5 -8 11 -8 6 0 23 -9 38 -19 14 -11 47 -30 71 -43 63 -34 119 -66
160 -91 19 -12 47 -29 62 -37 94 -52 184 -104 188 -109 5 -6 54 -34 125 -71
22 -11 58 -32 80 -45 22 -14 56 -33 75 -42 19 -10 38 -23 42 -29 4 -6 25 -16
48 -24 22 -7 40 -17 40 -21 0 -5 15 -15 33 -24 17 -8 55 -28 82 -45 28 -17 61
-36 75 -43 14 -6 27 -14 30 -17 7 -7 92 -55 179 -102 19 -10 37 -21 40 -25 3
-5 22 -17 41 -27 70 -38 106 -58 155 -87 28 -16 68 -38 90 -49 22 -11 48 -26
59 -34 19 -16 14 -36 -10 -36 -8 0 -14 -4 -14 -8 0 -4 -12 -13 -27 -19 -16 -7
-46 -23 -68 -36 -22 -14 -78 -47 -124 -73 -46 -27 -104 -61 -130 -76 -25 -15
-59 -34 -76 -43 -16 -9 -52 -30 -80 -46 -27 -16 -66 -37 -85 -46 -19 -10 -37
-21 -38 -26 -2 -4 -18 -14 -35 -23 -18 -8 -54 -28 -82 -44 -27 -16 -61 -35
-75 -42 -14 -7 -27 -15 -30 -18 -3 -3 -14 -10 -25 -16 -77 -42 -121 -67 -130
-74 -5 -4 -30 -19 -55 -32 -61 -33 -94 -52 -100 -58 -3 -3 -16 -11 -30 -18
-14 -6 -47 -25 -75 -41 -27 -17 -63 -37 -80 -47 -16 -9 -32 -20 -35 -23 -3 -3
-22 -14 -43 -23 -41 -20 -78 -23 -93 -9 -8 8 -67 42 -139 81 -16 9 -49 28 -72
43 -24 15 -47 27 -53 27 -5 0 -10 4 -10 8 0 4 -12 13 -27 20 -16 7 -49 25 -75
40 -25 15 -61 36 -80 46 -18 10 -35 22 -38 25 -3 3 -23 15 -44 26 -40 20 -82
44 -171 95 -27 16 -65 36 -82 45 -18 8 -33 19 -33 24 0 4 -18 14 -40 21 -22 7
-40 17 -40 21 0 5 -15 15 -32 24 -29 13 -71 35 -158 86 -14 8 -27 16 -30 19
-7 7 -68 42 -175 100 -16 9 -49 28 -72 43 -24 15 -49 27 -57 27 -8 0 -18 5
-21 10 -3 6 -40 29 -81 53 -41 23 -96 54 -122 70 -26 15 -58 33 -72 39 -14 7
-29 18 -35 24 -5 6 -18 14 -27 17 -30 11 -22 -43 15 -99 18 -27 80 -97 138
-154 58 -58 108 -110 110 -117 2 -6 252 -264 554 -573 303 -309 555 -570 561
-581 6 -10 91 -99 189 -196 l177 -177 239 244 c131 135 238 248 239 253 0 4
60 69 134 145 74 75 264 272 422 437 157 165 331 346 385 402 l99 101 0 -2207
0 -2207 38 -37 c33 -32 44 -37 85 -37 l47 0 0 2230 c0 1590 3 2230 11 2230 12
0 120 -106 135 -132 8 -14 388 -408 781 -809 62 -64 113 -119 113 -123 0 -10
471 -496 481 -496 9 0 1199 1216 1199 1226 0 4 89 97 199 208 109 110 231 235
270 277 l71 76 -6 46 c-4 26 -8 47 -9 47 -1 0 -22 -11 -46 -25 -24 -14 -60
-33 -79 -42 -19 -10 -36 -21 -38 -25 -2 -4 -22 -17 -45 -28 -23 -11 -60 -31
-82 -45 -22 -13 -58 -33 -80 -45 -65 -33 -100 -55 -103 -62 -2 -5 -8 -8 -13
-8 -5 0 -28 -12 -52 -27 -23 -15 -55 -34 -72 -43 -44 -23 -79 -44 -85 -50 -3
-3 -16 -11 -30 -18 -14 -6 -46 -24 -72 -39 -26 -16 -82 -48 -124 -73 -43 -25
-98 -57 -123 -72 -25 -15 -59 -34 -76 -43 -16 -9 -52 -30 -80 -46 -27 -16 -66
-37 -85 -46 -19 -10 -37 -21 -38 -26 -2 -4 -18 -14 -35 -23 -18 -8 -54 -28
-82 -44 -27 -16 -64 -36 -82 -44 -17 -9 -52 -29 -76 -46 -25 -16 -48 -30 -51
-30 -4 0 -24 -12 -46 -26 -22 -14 -54 -34 -72 -43 -36 -18 -42 -16 -173 59
-27 16 -65 36 -82 45 -18 8 -33 19 -33 24 0 4 -18 14 -40 21 -22 7 -40 17 -40
21 0 5 -15 15 -32 24 -32 14 -77 39 -188 104 -30 18 -63 35 -72 38 -10 3 -18
9 -18 14 0 5 -6 9 -14 9 -8 0 -27 11 -43 24 -15 13 -44 31 -63 40 -50 23 -94
50 -98 59 -2 4 -8 7 -13 7 -5 0 -28 12 -52 27 -41 26 -82 49 -142 81 -16 8
-48 27 -70 42 -35 23 -175 105 -270 158 -55 31 -105 65 -105 72 0 7 104 75
150 99 14 7 48 25 75 41 28 16 65 36 83 45 17 8 32 19 32 24 0 4 18 14 40 21
22 7 40 17 40 21 0 4 19 17 43 29 23 11 60 31 82 45 22 13 56 32 75 41 19 9
42 22 50 29 14 12 63 40 160 93 24 13 57 32 71 43 15 10 32 19 38 19 6 0 11 4
11 8 0 4 12 13 28 20 15 6 50 25 77 42 28 17 66 38 85 48 19 9 60 33 90 52 63
40 98 61 155 90 22 12 63 34 90 50 28 16 62 35 78 42 15 7 27 16 27 20 0 4 19
16 43 27 23 12 65 34 92 51 28 17 58 33 68 36 9 4 17 10 17 14 0 4 8 10 18 13
9 3 42 20 72 38 30 18 69 40 85 49 51 27 130 74 135 80 3 3 16 11 30 18 14 7
48 26 75 42 28 16 66 38 85 47 19 10 56 32 82 50 26 18 62 39 80 48 18 9 56
29 83 45 28 16 68 38 90 50 62 32 99 54 106 63 3 4 21 15 40 25 85 45 172 95
179 102 5 5 41 25 109 62 47 25 51 35 16 44 -14 3 -25 10 -25 15 0 4 -19 17
-42 29 -24 11 -61 31 -83 45 -22 13 -58 34 -80 45 -22 11 -76 43 -120 70 -44
27 -90 54 -103 60 -12 5 -46 25 -74 45 -29 19 -57 35 -61 35 -5 0 -21 8 -35
19 -23 16 -67 42 -147 85 -11 6 -22 13 -25 16 -7 7 -56 35 -107 61 -47 23 -51
30 -29 48 8 7 18 38 21 69 3 31 12 68 18 81 16 33 17 712 1 732 -6 8 -17 50
-24 94 -6 44 -15 85 -19 90 -5 6 -16 44 -26 85 -9 41 -21 80 -25 85 -4 6 -13
28 -20 50 -7 22 -19 49 -26 60 -8 11 -14 26 -14 35 0 14 -59 140 -71 150 -3 3
-13 25 -23 49 -9 23 -32 64 -51 88 -19 25 -35 51 -35 57 0 32 -346 436 -372
436 -5 0 -27 18 -48 40 -21 22 -41 40 -44 40 -4 0 -37 25 -73 55 -37 30 -72
55 -79 55 -7 0 -14 3 -16 8 -3 8 -78 58 -123 82 -76 42 -175 91 -225 113 -30
14 -71 32 -90 40 -19 9 -48 19 -65 23 -16 4 -35 11 -41 15 -6 5 -35 14 -65 20
-30 6 -59 15 -65 20 -5 4 -59 15 -120 24 -60 9 -118 20 -129 25 -11 5 -57 12
-102 15 -71 6 -84 5 -89 -9 -3 -9 -11 -16 -16 -16 -6 0 -5 6 2 15 11 13 -8 15
-166 13 -99 -1 -199 -3 -224 -5z m261 -166 c-10 -9 -11 -8 -5 6 3 10 9 15 12
12 3 -3 0 -11 -7 -18z m-273 -505 c-7 -18 -16 -32 -20 -32 -4 0 0 16 9 35 20
42 27 41 11 -3z m-38 -79 c-11 -17 -11 -17 -6 0 3 10 6 24 7 30 0 9 2 9 5 0 3
-7 0 -20 -6 -30z m-13 -45 c-3 -8 -6 -5 -6 6 -1 11 2 17 5 13 3 -3 4 -12 1
-19z m-1370 -30 c-3 -8 -6 -5 -6 6 -1 11 2 17 5 13 3 -3 4 -12 1 -19z m-10
-50 c-3 -8 -6 -5 -6 6 -1 11 2 17 5 13 3 -3 4 -12 1 -19z m-40 -255 c-3 -10
-5 -4 -5 12 0 17 2 24 5 18 2 -7 2 -21 0 -30z m0 -115 c-2 -13 -4 -5 -4 17 -1
22 1 32 4 23 2 -10 2 -28 0 -40z m0 -50 c-3 -8 -6 -5 -6 6 -1 11 2 17 5 13 3
-3 4 -12 1 -19z m-100 -115 c-2 -21 -4 -4 -4 37 0 41 2 58 4 38 2 -21 2 -55 0
-75z m1110 -435 c-3 -7 -5 -2 -5 12 0 14 2 19 5 13 2 -7 2 -19 0 -25z m-10
-80 c-2 -13 -4 -5 -4 17 -1 22 1 32 4 23 2 -10 2 -28 0 -40z m-913 -284 c3 -8
2 -12 -4 -9 -6 3 -10 10 -10 16 0 14 7 11 14 -7z m35 -74 c11 -24 11 -24 -3
-6 -9 11 -16 24 -16 30 0 12 5 7 19 -24z m50 -110 c11 -24 11 -24 -3 -6 -9 11
-16 24 -16 30 0 12 5 7 19 -24z"/>
<path d="M4985 10 c-3 -5 -1 -10 4 -10 6 0 11 5 11 10 0 6 -2 10 -4 10 -3 0
-8 -4 -11 -10z"/>
</g>
</svg>
